<svg id="Capa_1" enable-background="new 0 0 512 512" height="512" viewBox="0 0 512 512" width="512" xmlns="http://www.w3.org/2000/svg"><g><g><path d="m195.51 391.599h40.327l-30.245 112.914h-40.326z" fill="#30579d"/></g><g><path d="m189.569 413.779 5.941-22.18h40.327l-5.941 22.18z" fill="#26457d"/></g><g><path d="m316.49 391.599h-40.327l30.245 112.914h40.326z" fill="#30579d"/></g><g><path d="m322.431 413.779-5.941-22.18h-40.327l5.941 22.18z" fill="#26457d"/></g><g><path d="m24.123 39.751h463.754v319.587h-463.754z" fill="#ecf4ff"/></g><g><path d="m463.681 39.751h24.196v319.587h-24.196z" fill="#cbe2ff"/></g><g><path d="m7.993 359.338h496.015v32.261h-496.015z" fill="#4073c8"/></g><g><path d="m479.812 359.338h24.196v32.261h-24.196z" fill="#30579d"/></g><g><path d="m235.837 391.599h40.326v112.914h-40.326z" fill="#4073c8"/></g><g><path d="m235.837 391.599h40.326v22.18h-40.326z" fill="#30579d"/></g><g><g><path d="m322.539 61.426h32.261v139.126h-32.261z" fill="#4073c8" transform="matrix(0 1 -1 0 469.659 -207.68)"/></g><g><g><path d="m154.176 114.859v84.686h84.685c0-46.696-37.99-84.686-84.685-84.686z" fill="#c8ea73"/></g><g><path d="m214.029 259.398c15.334-15.334 24.832-36.506 24.832-59.854h-84.685z" fill="#f6e266"/></g><g><path d="m154.176 199.544v-84.686c-46.696 0-84.685 37.99-84.685 84.686s37.99 84.686 84.685 84.686c23.348 0 44.519-9.497 59.854-24.832z" fill="#dd5790"/></g></g></g><g><path d="m7.993 7.49h496.015v32.261h-496.015z" fill="#4073c8"/></g><g><path d="m479.812 7.49h24.196v32.261h-24.196z" fill="#30579d"/></g><g><path d="m269.106 154.605h139.126c4.134 0 7.485-3.351 7.485-7.485v-32.261c0-4.134-3.351-7.485-7.485-7.485h-139.126c-4.134 0-7.485 3.351-7.485 7.485v32.261c0 4.134 3.35 7.485 7.485 7.485zm7.485-32.261h124.156v17.291h-124.156z"/><path d="m269.106 186.866h173.404c4.134 0 7.485-3.351 7.485-7.485s-3.351-7.485-7.485-7.485h-173.404c-4.134 0-7.485 3.351-7.485 7.485s3.35 7.485 7.485 7.485z"/><path d="m269.106 219.127h173.404c4.134 0 7.485-3.351 7.485-7.485s-3.351-7.485-7.485-7.485h-173.404c-4.134 0-7.485 3.351-7.485 7.485s3.35 7.485 7.485 7.485z"/><path d="m269.106 251.389h139.126c4.134 0 7.485-3.351 7.485-7.485s-3.351-7.485-7.485-7.485h-139.126c-4.134 0-7.485 3.351-7.485 7.485s3.35 7.485 7.485 7.485z"/><path d="m62.005 199.544c0 50.823 41.348 92.171 92.171 92.171s92.171-41.348 92.171-92.171-41.348-92.171-92.171-92.171-92.171 41.348-92.171 92.171zm151.771 49.014-41.529-41.529h58.76c-1.516 15.678-7.733 30-17.231 41.529zm-136.8-49.014c0-40.043 30.646-73.054 69.715-76.831v76.831c0 2.065.836 3.935 2.189 5.289.001.001.002.003.003.004l54.307 54.307c-13.341 10.991-30.419 17.6-49.014 17.6-42.569 0-77.2-34.631-77.2-77.2zm154.031-7.485h-69.346v-69.346c36.605 3.539 65.807 32.742 69.346 69.346z"/><path d="m504.008 47.236c4.134 0 7.485-3.351 7.485-7.485v-32.266c0-4.134-3.351-7.485-7.485-7.485h-496.016c-4.134 0-7.485 3.351-7.485 7.485v32.266c0 4.134 3.351 7.485 7.485 7.485h8.646v304.615h-8.646c-4.134 0-7.485 3.351-7.485 7.485v32.266c0 4.134 3.351 7.485 7.485 7.485h61.498c4.134 0 7.485-3.351 7.485-7.485s-3.351-7.485-7.485-7.485h-54.012v-17.296h342.32c4.134 0 7.485-3.351 7.485-7.485s-3.351-7.485-7.485-7.485h-326.189v-304.615h31.983c4.134 0 7.485-3.351 7.485-7.485s-3.351-7.485-7.485-7.485h-48.114v-17.296h481.045v17.296h-398c-4.134 0-7.485 3.351-7.485 7.485s3.351 7.485 7.485 7.485h381.869v304.615h-87.663c-4.134 0-7.485 3.351-7.485 7.485s3.351 7.485 7.485 7.485h103.794v17.296h-392.102c-4.134 0-7.485 3.351-7.485 7.485s3.351 7.485 7.485 7.485h81.335l-27.721 103.489c-1.07 3.993 1.3 8.097 5.293 9.166.649.174 1.3.257 1.941.257 3.305 0 6.329-2.206 7.225-5.551l28.759-107.362h24.829l-27.72 103.489c-1.07 3.993 1.3 8.097 5.293 9.166.649.174 1.3.257 1.941.257 3.305 0 6.329-2.206 7.225-5.551l15.53-57.978v56.041c0 4.134 3.351 7.485 7.485 7.485s7.485-3.351 7.485-7.485v-105.423h25.356v105.425c0 4.134 3.351 7.485 7.485 7.485s7.485-3.351 7.485-7.485v-56.041l15.53 57.978c.896 3.345 3.92 5.551 7.225 5.551.641 0 1.293-.083 1.941-.257 3.993-1.069 6.363-5.173 5.293-9.166l-27.72-103.489h24.829l28.759 107.362c.896 3.345 3.92 5.551 7.225 5.551.641 0 1.293-.083 1.941-.257 3.993-1.069 6.363-5.173 5.293-9.166l-27.721-103.489h177.764c4.134 0 7.485-3.351 7.485-7.485v-32.266c0-4.134-3.351-7.485-7.485-7.485h-8.646v-304.617z"/></g></g></svg>