<svg id="Capa_1" enable-background="new 0 0 512 512" height="512" viewBox="0 0 512 512" width="512" xmlns="http://www.w3.org/2000/svg"><g><g><path d="m442 106c33.14 0 60 26.86 60 60s-26.86 60-60 60h-192c-33.14 0-60-26.86-60-60s26.86-60 60-60z" fill="#eefaff"/><path d="m442 316c33.14 0 60 26.86 60 60s-26.86 60-60 60h-192c-33.14 0-60-26.86-60-60s26.86-60 60-60z" fill="#eefaff"/><path d="m130 376v60h-120v-60z" fill="#ffd88e"/><path d="m130 216v10h-120v-10c0-33.14 26.86-60 60-60 33.138 0 60 26.859 60 60z" fill="#ff7b79"/><circle cx="70" cy="106" fill="#fce8d0" r="30"/></g><g><circle cx="436" cy="376" r="10"/><circle cx="376" cy="376" r="10"/><circle cx="316" cy="376" r="10"/><circle cx="256" cy="376" r="10"/><path d="m110 106c0-22.056-17.944-40-40-40s-40 17.944-40 40 17.944 40 40 40 40-17.944 40-40zm-40 20c-11.028 0-20-8.972-20-20s8.972-20 20-20 20 8.972 20 20-8.972 20-20 20z"/><path d="m10 236h120c5.523 0 10-4.478 10-10v-10c0-38.625-31.248-70-70-70-38.598 0-70 31.402-70 70v10c0 5.522 4.477 10 10 10zm60-70c27.587 0 50 22.315 50 50h-100c0-27.57 22.43-50 50-50z"/><path d="m10 446h120c5.523 0 10-4.478 10-10v-60c0-5.522-4.477-10-10-10h-20v-50c0-22.056-17.944-40-40-40s-40 17.944-40 40v50h-20c-5.523 0-10 4.478-10 10v60c0 5.522 4.477 10 10 10zm40-130c0-11.028 8.972-20 20-20s20 8.972 20 20v50h-40zm-30 70h100v40h-100z"/><path d="m452 166c0-5.522-4.477-10-10-10h-192c-5.523 0-10 4.478-10 10s4.477 10 10 10h192c5.523 0 10-4.478 10-10z"/><path d="m442 306h-192c-38.598 0-70 31.402-70 70s31.402 70 70 70h51c5.523 0 10-4.478 10-10s-4.477-10-10-10h-51c-27.57 0-50-22.43-50-50s22.43-50 50-50h192c27.57 0 50 22.43 50 50s-22.43 50-50 50h-51c-5.523 0-10 4.478-10 10s4.477 10 10 10h51c38.598 0 70-31.402 70-70s-31.402-70-70-70z"/><path d="m442 96h-192c-38.598 0-70 31.402-70 70s31.402 70 70 70h51c5.523 0 10-4.478 10-10s-4.477-10-10-10h-51c-27.57 0-50-22.43-50-50s22.43-50 50-50h192c27.57 0 50 22.43 50 50s-22.43 50-50 50h-51c-5.523 0-10 4.478-10 10s4.477 10 10 10h51c38.598 0 70-31.402 70-70s-31.402-70-70-70z"/><circle cx="346" cy="226" r="10"/><circle cx="346" cy="436" r="10"/></g></g></svg>